<?xml version="1.0" encoding="utf-8"?>
<!-- Generator: Adobe Illustrator 25.3.1, SVG Export Plug-In . SVG Version: 6.00 Build 0)  -->
<svg version="1.1" id="レイヤー_1" xmlns="http://www.w3.org/2000/svg" xmlns:xlink="http://www.w3.org/1999/xlink" x="0px"
	 y="0px" viewBox="0 0 1000 563" style="enable-background:new 0 0 1000 563;" xml:space="preserve">
<style type="text/css">
	.st0{fill-rule:evenodd;clip-rule:evenodd;fill:#FFFFFF;}
	.st1{fill-rule:evenodd;clip-rule:evenodd;}
	.st2{fill-rule:evenodd;clip-rule:evenodd;fill:#41C9B4;}
</style>
<desc>Created with Sketch.</desc>
<g id="normal_x2F_logo">
	<rect y="0" class="st0" width="1000" height="563"/>
	<g>
		<path id="Shape" class="st1" d="M577.3,225.9c43.4,0,76.2,31.7,76.2,73.6s-32.8,73.6-76.2,73.6c-43.4,0-76.2-31.7-76.2-73.6
			S533.9,225.9,577.3,225.9z M909.1,226.5c46.9,0,68.4,36.4,68.4,76.3c0,2.7,0,5.1-0.3,7.8c-0.2,1.5-0.9,2.6-2.4,2.7h-0.3h-95.4
			c3.9,17.3,15.1,27.6,34.4,27.6c11.7,0,21.2-3,32.5-12.7c1.1-0.9,2.3-1.1,3.5-0.2l0.2,0.2l18.5,16.7c1.2,1.1,1.5,2.6,0.3,3.9
			c-13.8,16.2-31.9,24.4-55.6,24.4c-42.6,0-73.4-29.9-73.4-73.4C839.6,259.6,868.1,226.5,909.1,226.5z M753.5,193.2
			c1.6,0,2.7,1,2.7,2.7v33.5h30.4c1.6,0,2.7,1,2.7,2.7v28.4c0,1.6-1,2.7-2.7,2.7h-30.4v61.3c0,9.3,4.1,13.7,12.3,13.7
			c6,0,11.1-0.5,17.1-3.6c1.8-0.9,3.2-0.3,3.2,1.5v26.5c0,1.3-0.5,2.6-1.8,3.4c-7.4,4.6-17.1,7.3-29.7,7.3
			c-21.9,0-37.5-7.9-40.4-32.9c-0.3-2.7-0.4-6.2-0.4-11v-66.2h-14.2c-1.6,0-2.7-1-2.7-2.7v-28.4c0-1.7,1-2.7,2.7-2.7h14.2v-33.5
			c0-1.6,1-2.7,2.7-2.7h34.5V193.2z M402.2,225.9c25.4,0,41.8,14.2,46.4,38.2c0.8,4.4,1.2,9.6,1.2,16.3V367c0,1.6-1,2.7-2.7,2.7
			h-34.4c-1.6,0-2.7-1-2.7-2.7v-76.3c0-18.7-8.9-28.7-24.2-28.7c-15.1,0-24.8,9.8-24.8,28.7V367c0,1.6-1,2.7-2.7,2.7h-34.6
			c-1.6,0-2.7-1-2.7-2.7V232c0-1.7,1-2.7,2.7-2.7h34.4c1.7,0,2.7,1,2.7,2.7V248C374.3,230.3,389.8,225.9,402.2,225.9z M577.3,260.3
			c-22.6,0-36.7,18.2-36.7,39.2c0,20.9,14.2,39.2,36.7,39.2c22.6,0,36.7-18.2,36.7-39.2C614.1,278.5,599.9,260.3,577.3,260.3z
			 M909.1,258.5c-15.9,0-26.2,10.7-30.7,29.2l-0.2,0.8h60.5C935.9,271,926.3,258.5,909.1,258.5z"/>
		<path id="Shape_1_" class="st2" d="M112.3,267.4H84.4c-3.3,0-4.4-0.2-6-0.7c-4.5-1.3-8.1-5.9-8.1-11.3c0-5.4,3.6-9.9,8.1-11.3
			c1.7-0.5,2.8-0.7,6-0.7h18v-18c0-3.3,0.2-4.4,0.7-6c1.3-4.6,5.9-8.1,11.3-8.1c5.4,0,9.9,3.6,11.4,8.1c0.5,1.6,0.7,2.8,0.7,6v27.8
			c0,1.6,0,3.4-0.3,4.9c-0.9,4.2-4.7,8-8.9,8.9C115.6,267.4,114,267.4,112.3,267.4L112.3,267.4z M201.7,369.7H52.4V238.1
			c0-1.6,0.6-3.1,1.7-4.3l38.7-38.7c1.2-1.2,2.7-1.7,4.3-1.7h104.6L201.7,369.7L201.7,369.7z M29.8,216c-4,4-6.6,8.9-7.1,14.5
			c-0.1,0.9-0.2,2.3-0.2,3.6v148.8c0,1.9,0.1,3,0.2,3.7c0.7,6.3,6.4,12.1,12.8,12.7c0.7,0.1,1.7,0.2,3.7,0.2H215
			c1.9,0,3-0.1,3.7-0.2c6.3-0.7,12.1-6.4,12.7-12.7c0.1-0.7,0.2-1.7,0.2-3.7V180.1c0-1.9-0.1-3-0.2-3.7c-0.7-6.3-6.4-12.1-12.7-12.7
			c-0.7-0.1-1.7-0.2-3.7-0.2H93.2c-1.3,0-2.7,0.1-3.6,0.2c-5.5,0.5-10.5,3.1-14.5,7.1L29.8,216z"/>
	</g>
</g>
</svg>
